<svg xmlns="http://www.w3.org/2000/svg" width="1200" height="340" viewBox="0 0 1200 340">
<defs>
  <radialGradient id="glow" cx="50%" cy="22%" r="80%">
    <stop offset="0%" stop-color="#3B0F1A"/>
    <stop offset="55%" stop-color="#150A0E"/>
    <stop offset="100%" stop-color="#0A0508"/>
  </radialGradient>
  <linearGradient id="skyfade" x1="0" y1="0" x2="0" y2="1">
    <stop offset="0%" stop-color="#5C1420" stop-opacity="0.25"/>
    <stop offset="100%" stop-color="#5C1420" stop-opacity="0"/>
  </linearGradient>
</defs>
<rect x="0" y="0" width="1200" height="340" fill="#9C1F2E"/>
<rect x="7" y="7" width="1186" height="326" fill="url(#glow)"/>
<rect x="14" y="14" width="1172" height="312" fill="none" stroke="#5C1420" stroke-width="2"/>
<rect x="0" y="0" width="1200" height="4" fill="url(#skyfade)" transform="scale(1,-1) translate(0,-340)"/>
<circle cx="29" cy="38" r="6.8" fill="none" stroke="#EFE3D6" stroke-width="1.3" opacity="0.55"/><circle cx="47" cy="38" r="6.8" fill="none" stroke="#EFE3D6" stroke-width="1.3" opacity="0.55"/><circle cx="38" cy="29" r="6.8" fill="none" stroke="#EFE3D6" stroke-width="1.3" opacity="0.55"/><circle cx="38" cy="47" r="6.8" fill="none" stroke="#EFE3D6" stroke-width="1.3" opacity="0.55"/><circle cx="38" cy="38" r="3.1" fill="#C7304A" opacity="0.6"/>
<circle cx="1153" cy="38" r="6.8" fill="none" stroke="#EFE3D6" stroke-width="1.3" opacity="0.55"/><circle cx="1171" cy="38" r="6.8" fill="none" stroke="#EFE3D6" stroke-width="1.3" opacity="0.55"/><circle cx="1162" cy="29" r="6.8" fill="none" stroke="#EFE3D6" stroke-width="1.3" opacity="0.55"/><circle cx="1162" cy="47" r="6.8" fill="none" stroke="#EFE3D6" stroke-width="1.3" opacity="0.55"/><circle cx="1162" cy="38" r="3.1" fill="#C7304A" opacity="0.6"/>
<circle cx="29" cy="302" r="6.8" fill="none" stroke="#EFE3D6" stroke-width="1.3" opacity="0.55"/><circle cx="47" cy="302" r="6.8" fill="none" stroke="#EFE3D6" stroke-width="1.3" opacity="0.55"/><circle cx="38" cy="293" r="6.8" fill="none" stroke="#EFE3D6" stroke-width="1.3" opacity="0.55"/><circle cx="38" cy="311" r="6.8" fill="none" stroke="#EFE3D6" stroke-width="1.3" opacity="0.55"/><circle cx="38" cy="302" r="3.1" fill="#C7304A" opacity="0.6"/>
<circle cx="1153" cy="302" r="6.8" fill="none" stroke="#EFE3D6" stroke-width="1.3" opacity="0.55"/><circle cx="1171" cy="302" r="6.8" fill="none" stroke="#EFE3D6" stroke-width="1.3" opacity="0.55"/><circle cx="1162" cy="293" r="6.8" fill="none" stroke="#EFE3D6" stroke-width="1.3" opacity="0.55"/><circle cx="1162" cy="311" r="6.8" fill="none" stroke="#EFE3D6" stroke-width="1.3" opacity="0.55"/><circle cx="1162" cy="302" r="3.1" fill="#C7304A" opacity="0.6"/>
<rect x="40" y="20" width="5" height="5" fill="#5C1420" opacity="0.7" transform="rotate(45 42.5 22.5)"/>
<rect x="66" y="20" width="5" height="5" fill="#5C1420" opacity="0.7" transform="rotate(45 68.5 22.5)"/>
<rect x="92" y="20" width="5" height="5" fill="#5C1420" opacity="0.7" transform="rotate(45 94.5 22.5)"/>
<rect x="118" y="20" width="5" height="5" fill="#5C1420" opacity="0.7" transform="rotate(45 120.5 22.5)"/>
<rect x="144" y="20" width="5" height="5" fill="#5C1420" opacity="0.7" transform="rotate(45 146.5 22.5)"/>
<rect x="170" y="20" width="5" height="5" fill="#5C1420" opacity="0.7" transform="rotate(45 172.5 22.5)"/>
<rect x="196" y="20" width="5" height="5" fill="#5C1420" opacity="0.7" transform="rotate(45 198.5 22.5)"/>
<rect x="222" y="20" width="5" height="5" fill="#5C1420" opacity="0.7" transform="rotate(45 224.5 22.5)"/>
<rect x="248" y="20" width="5" height="5" fill="#5C1420" opacity="0.7" transform="rotate(45 250.5 22.5)"/>
<rect x="274" y="20" width="5" height="5" fill="#5C1420" opacity="0.7" transform="rotate(45 276.5 22.5)"/>
<rect x="300" y="20" width="5" height="5" fill="#5C1420" opacity="0.7" transform="rotate(45 302.5 22.5)"/>
<rect x="326" y="20" width="5" height="5" fill="#5C1420" opacity="0.7" transform="rotate(45 328.5 22.5)"/>
<rect x="352" y="20" width="5" height="5" fill="#5C1420" opacity="0.7" transform="rotate(45 354.5 22.5)"/>
<rect x="378" y="20" width="5" height="5" fill="#5C1420" opacity="0.7" transform="rotate(45 380.5 22.5)"/>
<rect x="404" y="20" width="5" height="5" fill="#5C1420" opacity="0.7" transform="rotate(45 406.5 22.5)"/>
<rect x="430" y="20" width="5" height="5" fill="#5C1420" opacity="0.7" transform="rotate(45 432.5 22.5)"/>
<rect x="456" y="20" width="5" height="5" fill="#5C1420" opacity="0.7" transform="rotate(45 458.5 22.5)"/>
<rect x="482" y="20" width="5" height="5" fill="#5C1420" opacity="0.7" transform="rotate(45 484.5 22.5)"/>
<rect x="508" y="20" width="5" height="5" fill="#5C1420" opacity="0.7" transform="rotate(45 510.5 22.5)"/>
<rect x="534" y="20" width="5" height="5" fill="#5C1420" opacity="0.7" transform="rotate(45 536.5 22.5)"/>
<rect x="560" y="20" width="5" height="5" fill="#5C1420" opacity="0.7" transform="rotate(45 562.5 22.5)"/>
<rect x="586" y="20" width="5" height="5" fill="#5C1420" opacity="0.7" transform="rotate(45 588.5 22.5)"/>
<rect x="612" y="20" width="5" height="5" fill="#5C1420" opacity="0.7" transform="rotate(45 614.5 22.5)"/>
<rect x="638" y="20" width="5" height="5" fill="#5C1420" opacity="0.7" transform="rotate(45 640.5 22.5)"/>
<rect x="664" y="20" width="5" height="5" fill="#5C1420" opacity="0.7" transform="rotate(45 666.5 22.5)"/>
<rect x="690" y="20" width="5" height="5" fill="#5C1420" opacity="0.7" transform="rotate(45 692.5 22.5)"/>
<rect x="716" y="20" width="5" height="5" fill="#5C1420" opacity="0.7" transform="rotate(45 718.5 22.5)"/>
<rect x="742" y="20" width="5" height="5" fill="#5C1420" opacity="0.7" transform="rotate(45 744.5 22.5)"/>
<rect x="768" y="20" width="5" height="5" fill="#5C1420" opacity="0.7" transform="rotate(45 770.5 22.5)"/>
<rect x="794" y="20" width="5" height="5" fill="#5C1420" opacity="0.7" transform="rotate(45 796.5 22.5)"/>
<rect x="820" y="20" width="5" height="5" fill="#5C1420" opacity="0.7" transform="rotate(45 822.5 22.5)"/>
<rect x="846" y="20" width="5" height="5" fill="#5C1420" opacity="0.7" transform="rotate(45 848.5 22.5)"/>
<rect x="872" y="20" width="5" height="5" fill="#5C1420" opacity="0.7" transform="rotate(45 874.5 22.5)"/>
<rect x="898" y="20" width="5" height="5" fill="#5C1420" opacity="0.7" transform="rotate(45 900.5 22.5)"/>
<rect x="924" y="20" width="5" height="5" fill="#5C1420" opacity="0.7" transform="rotate(45 926.5 22.5)"/>
<rect x="950" y="20" width="5" height="5" fill="#5C1420" opacity="0.7" transform="rotate(45 952.5 22.5)"/>
<rect x="976" y="20" width="5" height="5" fill="#5C1420" opacity="0.7" transform="rotate(45 978.5 22.5)"/>
<rect x="1002" y="20" width="5" height="5" fill="#5C1420" opacity="0.7" transform="rotate(45 1004.5 22.5)"/>
<rect x="1028" y="20" width="5" height="5" fill="#5C1420" opacity="0.7" transform="rotate(45 1030.5 22.5)"/>
<rect x="1054" y="20" width="5" height="5" fill="#5C1420" opacity="0.7" transform="rotate(45 1056.5 22.5)"/>
<rect x="1080" y="20" width="5" height="5" fill="#5C1420" opacity="0.7" transform="rotate(45 1082.5 22.5)"/>
<rect x="1106" y="20" width="5" height="5" fill="#5C1420" opacity="0.7" transform="rotate(45 1108.5 22.5)"/>
<rect x="1132" y="20" width="5" height="5" fill="#5C1420" opacity="0.7" transform="rotate(45 1134.5 22.5)"/>
<rect x="1158" y="20" width="5" height="5" fill="#5C1420" opacity="0.7" transform="rotate(45 1160.5 22.5)"/>
<rect x="-0.2" y="235.9" width="60.5" height="86.1" fill="#0d0508"/><polygon points="-3.2,235.9 30.0,181.5 63.2,235.9" fill="#0d0508"/><path d="M 21.5 310.0 L 21.5 285.9 Q 30.0 266.9 38.5 285.9 L 38.5 310.0 Z" fill="#C7304A" opacity="0.16"/>
<rect x="39.2" y="234.1" width="62.3" height="87.9" fill="#150a0e"/><polygon points="36.2,234.1 70.3,178.0 104.4,234.1" fill="#150a0e"/><path d="M 61.6 309.7 L 61.6 285.1 Q 70.3 265.7 79.0 285.1 L 79.0 309.7 Z" fill="#C7304A" opacity="0.16"/>
<rect x="99.1" y="153.8" width="26.7" height="168.2" fill="#1b0c11"/><polygon points="96.1,153.8 112.5,129.7 128.9,153.8" fill="#1b0c11"/><rect x="111.3" y="111.7" width="2.4" height="14" fill="#1b0c11"/><rect x="107.5" y="116.7" width="10" height="2.4" fill="#1b0c11"/><path d="M 108.8 298.5 L 108.8 251.4 Q 112.5 214.3 116.2 251.4 L 116.2 298.5 Z" fill="#C7304A" opacity="0.16"/>
<rect x="98.5" y="271.2" width="68.2" height="50.8" fill="#0d0508"/><polygon points="95.5,271.2 132.6,209.8 169.7,271.2" fill="#0d0508"/><path d="M 123.1 314.9 L 123.1 300.6 Q 132.6 289.5 142.2 300.6 L 142.2 314.9 Z" fill="#C7304A" opacity="0.16"/>
<rect x="171.5" y="171.1" width="30.2" height="150.9" fill="#150a0e"/><polygon points="168.5,171.1 186.6,143.9 204.7,171.1" fill="#150a0e"/><rect x="185.4" y="125.9" width="2.4" height="14" fill="#150a0e"/><rect x="181.6" y="130.9" width="10" height="2.4" fill="#150a0e"/><path d="M 182.3 300.9 L 182.3 258.6 Q 186.6 225.4 190.8 258.6 L 190.8 300.9 Z" fill="#C7304A" opacity="0.16"/>
<rect x="188.9" y="144.2" width="29.5" height="177.8" fill="#1b0c11"/><polygon points="185.9,144.2 203.6,117.6 221.4,144.2" fill="#1b0c11"/><rect x="202.4" y="99.6" width="2.4" height="14" fill="#1b0c11"/><rect x="198.6" y="104.6" width="10" height="2.4" fill="#1b0c11"/><path d="M 199.5 297.1 L 199.5 247.3 Q 203.6 208.2 207.8 247.3 L 207.8 297.1 Z" fill="#C7304A" opacity="0.16"/>
<rect x="194.8" y="230.5" width="62.6" height="91.5" fill="#0d0508"/><polygon points="191.8,230.5 226.1,174.1 260.4,230.5" fill="#0d0508"/><path d="M 217.3 309.2 L 217.3 283.6 Q 226.1 263.4 234.9 283.6 L 234.9 309.2 Z" fill="#C7304A" opacity="0.16"/>
<rect x="240.6" y="255.1" width="60.6" height="66.9" fill="#150a0e"/><polygon points="237.6,255.1 270.9,200.5 304.2,255.1" fill="#150a0e"/><path d="M 262.4 312.6 L 262.4 293.9 Q 270.9 279.2 279.4 293.9 L 279.4 312.6 Z" fill="#C7304A" opacity="0.16"/>
<rect x="282.9" y="225.9" width="72.9" height="96.1" fill="#1b0c11"/><polygon points="279.9,225.9 319.3,160.3 358.8,225.9" fill="#1b0c11"/><path d="M 309.1 308.5 L 309.1 281.6 Q 319.3 260.5 329.6 281.6 L 329.6 308.5 Z" fill="#C7304A" opacity="0.16"/>
<rect x="336.0" y="269.2" width="55.2" height="52.8" fill="#0d0508"/><polygon points="333.0,269.2 363.6,219.5 394.2,269.2" fill="#0d0508"/><path d="M 355.9 314.6 L 355.9 299.8 Q 363.6 288.2 371.4 299.8 L 371.4 314.6 Z" fill="#C7304A" opacity="0.16"/>
<rect x="363.0" y="247.7" width="73.1" height="74.3" fill="#150a0e"/><polygon points="360.0,247.7 399.5,181.9 439.1,247.7" fill="#150a0e"/><path d="M 389.3 311.6 L 389.3 290.8 Q 399.5 274.5 409.8 290.8 L 409.8 311.6 Z" fill="#C7304A" opacity="0.16"/>
<rect x="432.2" y="259.7" width="46.0" height="62.3" fill="#1b0c11"/><polygon points="429.2,259.7 455.2,218.3 481.2,259.7" fill="#1b0c11"/><path d="M 448.8 313.3 L 448.8 295.9 Q 455.2 282.2 461.7 295.9 L 461.7 313.3 Z" fill="#C7304A" opacity="0.16"/>
<rect x="469.8" y="134.2" width="32.2" height="187.8" fill="#0d0508"/><polygon points="466.8,134.2 485.9,105.2 505.0,134.2" fill="#0d0508"/><rect x="484.7" y="87.2" width="2.4" height="14" fill="#0d0508"/><rect x="480.9" y="92.2" width="10" height="2.4" fill="#0d0508"/><path d="M 481.4 295.7 L 481.4 243.1 Q 485.9 201.8 490.4 243.1 L 490.4 295.7 Z" fill="#C7304A" opacity="0.16"/>
<rect x="481.4" y="251.4" width="48.8" height="70.6" fill="#150a0e"/><polygon points="478.4,251.4 505.8,207.5 533.2,251.4" fill="#150a0e"/><path d="M 499.0 312.1 L 499.0 292.3 Q 505.8 276.8 512.7 292.3 L 512.7 312.1 Z" fill="#C7304A" opacity="0.16"/>
<rect x="525.7" y="168.4" width="32.4" height="153.6" fill="#1b0c11"/><polygon points="522.7,168.4 541.9,139.3 561.1,168.4" fill="#1b0c11"/><rect x="540.7" y="121.3" width="2.4" height="14" fill="#1b0c11"/><rect x="536.9" y="126.3" width="10" height="2.4" fill="#1b0c11"/><path d="M 537.4 300.5 L 537.4 257.5 Q 541.9 223.7 546.4 257.5 L 546.4 300.5 Z" fill="#C7304A" opacity="0.16"/>
<rect x="529.2" y="243.6" width="63.9" height="78.4" fill="#0d0508"/><polygon points="526.2,243.6 561.2,186.1 596.1,243.6" fill="#0d0508"/><path d="M 552.2 311.0 L 552.2 289.1 Q 561.2 271.8 570.1 289.1 L 570.1 311.0 Z" fill="#C7304A" opacity="0.16"/>
<rect x="594.1" y="146.8" width="27.7" height="175.2" fill="#150a0e"/><polygon points="591.1,146.8 608.0,121.8 624.8,146.8" fill="#150a0e"/><rect x="606.8" y="103.8" width="2.4" height="14" fill="#150a0e"/><rect x="603.0" y="108.8" width="10" height="2.4" fill="#150a0e"/><path d="M 604.1 297.5 L 604.1 248.4 Q 608.0 209.8 611.9 248.4 L 611.9 297.5 Z" fill="#C7304A" opacity="0.16"/>
<rect x="586.6" y="219.4" width="77.1" height="102.6" fill="#1b0c11"/><polygon points="583.6,219.4 625.1,150.0 666.6,219.4" fill="#1b0c11"/><path d="M 614.3 307.6 L 614.3 278.9 Q 625.1 256.3 635.9 278.9 L 635.9 307.6 Z" fill="#C7304A" opacity="0.16"/>
<rect x="658.2" y="247.2" width="52.7" height="74.8" fill="#0d0508"/><polygon points="655.2,247.2 684.5,199.7 713.9,247.2" fill="#0d0508"/><path d="M 677.2 311.5 L 677.2 290.6 Q 684.5 274.1 691.9 290.6 L 691.9 311.5 Z" fill="#C7304A" opacity="0.16"/>
<rect x="697.4" y="206.7" width="49.2" height="115.3" fill="#150a0e"/><polygon points="694.4,206.7 722.0,162.4 749.6,206.7" fill="#150a0e"/><path d="M 715.1 305.9 L 715.1 273.6 Q 722.0 248.2 728.9 273.6 L 728.9 305.9 Z" fill="#C7304A" opacity="0.16"/>
<rect x="716.9" y="251.6" width="70.7" height="70.4" fill="#1b0c11"/><polygon points="713.9,251.6 752.3,188.0 790.6,251.6" fill="#1b0c11"/><path d="M 742.3 312.1 L 742.3 292.4 Q 752.3 277.0 762.2 292.4 L 762.2 312.1 Z" fill="#C7304A" opacity="0.16"/>
<rect x="768.0" y="234.4" width="48.9" height="87.6" fill="#0d0508"/><polygon points="765.0,234.4 792.4,190.4 819.9,234.4" fill="#0d0508"/><path d="M 785.6 309.7 L 785.6 285.2 Q 792.4 265.9 799.3 285.2 L 799.3 309.7 Z" fill="#C7304A" opacity="0.16"/>
<rect x="797.7" y="243.2" width="57.9" height="78.8" fill="#150a0e"/><polygon points="794.7,243.2 826.7,191.1 858.6,243.2" fill="#150a0e"/><path d="M 818.6 311.0 L 818.6 288.9 Q 826.7 271.6 834.8 288.9 L 834.8 311.0 Z" fill="#C7304A" opacity="0.16"/>
<rect x="833.3" y="215.1" width="64.4" height="106.9" fill="#1b0c11"/><polygon points="830.3,215.1 865.5,157.1 900.7,215.1" fill="#1b0c11"/><path d="M 856.5 307.0 L 856.5 277.1 Q 865.5 253.6 874.5 277.1 L 874.5 307.0 Z" fill="#C7304A" opacity="0.16"/>
<rect x="865.9" y="218.4" width="75.1" height="103.6" fill="#0d0508"/><polygon points="862.9,218.4 903.4,150.8 944.0,218.4" fill="#0d0508"/><path d="M 892.9 307.5 L 892.9 278.5 Q 903.4 255.7 913.9 278.5 L 913.9 307.5 Z" fill="#C7304A" opacity="0.16"/>
<rect x="913.4" y="210.1" width="69.7" height="111.9" fill="#150a0e"/><polygon points="910.4,210.1 948.3,147.4 986.1,210.1" fill="#150a0e"/><path d="M 938.5 306.3 L 938.5 275.0 Q 948.3 250.4 958.0 275.0 L 958.0 306.3 Z" fill="#C7304A" opacity="0.16"/>
<rect x="966.0" y="233.0" width="74.2" height="89.0" fill="#1b0c11"/><polygon points="963.0,233.0 1003.1,166.2 1043.2,233.0" fill="#1b0c11"/><path d="M 992.7 309.5 L 992.7 284.6 Q 1003.1 265.0 1013.5 284.6 L 1013.5 309.5 Z" fill="#C7304A" opacity="0.16"/>
<rect x="1022.3" y="208.5" width="47.2" height="113.5" fill="#0d0508"/><polygon points="1019.3,208.5 1045.9,166.0 1072.5,208.5" fill="#0d0508"/><path d="M 1039.3 306.1 L 1039.3 274.3 Q 1045.9 249.4 1052.5 274.3 L 1052.5 306.1 Z" fill="#C7304A" opacity="0.16"/>
<rect x="1053.1" y="218.0" width="54.2" height="104.0" fill="#150a0e"/><polygon points="1050.1,218.0 1080.2,169.2 1110.3,218.0" fill="#150a0e"/><path d="M 1072.6 307.4 L 1072.6 278.3 Q 1080.2 255.4 1087.8 278.3 L 1087.8 307.4 Z" fill="#C7304A" opacity="0.16"/>
<rect x="1098.7" y="158.3" width="30.5" height="163.7" fill="#1b0c11"/><polygon points="1095.7,158.3 1114.0,130.9 1132.2,158.3" fill="#1b0c11"/><rect x="1112.8" y="112.9" width="2.4" height="14" fill="#1b0c11"/><rect x="1109.0" y="117.9" width="10" height="2.4" fill="#1b0c11"/><path d="M 1109.7 299.1 L 1109.7 253.2 Q 1114.0 217.2 1118.3 253.2 L 1118.3 299.1 Z" fill="#C7304A" opacity="0.16"/>
<rect x="1104.4" y="254.9" width="65.7" height="67.1" fill="#0d0508"/><polygon points="1101.4,254.9 1137.2,195.9 1173.1,254.9" fill="#0d0508"/><path d="M 1128.1 312.6 L 1128.1 293.8 Q 1137.2 279.1 1146.4 293.8 L 1146.4 312.6 Z" fill="#C7304A" opacity="0.16"/>
<rect x="14" y="320" width="1172" height="6" fill="#5C1420" opacity="0.55"/>
<circle cx="600.0" cy="78" r="50" fill="#0A0508" opacity="0.4"/>
<path d="M 600.0 78.0 L 640.0 78.0 A 40 40 0 0 1 636.1 95.2 Z" fill="#C7304A" opacity="0.28"/>
<path d="M 600.0 78.0 L 634.6 98.0 A 40 40 0 0 1 622.7 111.0 Z" fill="#9C1F2E" opacity="0.28"/>
<path d="M 600.0 78.0 L 620.0 112.6 A 40 40 0 0 1 603.1 117.9 Z" fill="#C7304A" opacity="0.28"/>
<path d="M 600.0 78.0 L 600.0 118.0 A 40 40 0 0 1 582.8 114.1 Z" fill="#9C1F2E" opacity="0.28"/>
<path d="M 600.0 78.0 L 580.0 112.6 A 40 40 0 0 1 567.0 100.7 Z" fill="#C7304A" opacity="0.28"/>
<path d="M 600.0 78.0 L 565.4 98.0 A 40 40 0 0 1 560.1 81.1 Z" fill="#9C1F2E" opacity="0.28"/>
<path d="M 600.0 78.0 L 560.0 78.0 A 40 40 0 0 1 563.9 60.8 Z" fill="#C7304A" opacity="0.28"/>
<path d="M 600.0 78.0 L 565.4 58.0 A 40 40 0 0 1 577.3 45.0 Z" fill="#9C1F2E" opacity="0.28"/>
<path d="M 600.0 78.0 L 580.0 43.4 A 40 40 0 0 1 596.9 38.1 Z" fill="#C7304A" opacity="0.28"/>
<path d="M 600.0 78.0 L 600.0 38.0 A 40 40 0 0 1 617.2 41.9 Z" fill="#9C1F2E" opacity="0.28"/>
<path d="M 600.0 78.0 L 620.0 43.4 A 40 40 0 0 1 633.0 55.3 Z" fill="#C7304A" opacity="0.28"/>
<path d="M 600.0 78.0 L 634.6 58.0 A 40 40 0 0 1 639.9 74.9 Z" fill="#9C1F2E" opacity="0.28"/>
<line x1="600.0" y1="78" x2="640.0" y2="78.0" stroke="#EFE3D6" stroke-width="1" opacity="0.4"/>
<line x1="600.0" y1="78" x2="634.6" y2="98.0" stroke="#EFE3D6" stroke-width="1" opacity="0.4"/>
<line x1="600.0" y1="78" x2="620.0" y2="112.6" stroke="#EFE3D6" stroke-width="1" opacity="0.4"/>
<line x1="600.0" y1="78" x2="600.0" y2="118.0" stroke="#EFE3D6" stroke-width="1" opacity="0.4"/>
<line x1="600.0" y1="78" x2="580.0" y2="112.6" stroke="#EFE3D6" stroke-width="1" opacity="0.4"/>
<line x1="600.0" y1="78" x2="565.4" y2="98.0" stroke="#EFE3D6" stroke-width="1" opacity="0.4"/>
<line x1="600.0" y1="78" x2="560.0" y2="78.0" stroke="#EFE3D6" stroke-width="1" opacity="0.4"/>
<line x1="600.0" y1="78" x2="565.4" y2="58.0" stroke="#EFE3D6" stroke-width="1" opacity="0.4"/>
<line x1="600.0" y1="78" x2="580.0" y2="43.4" stroke="#EFE3D6" stroke-width="1" opacity="0.4"/>
<line x1="600.0" y1="78" x2="600.0" y2="38.0" stroke="#EFE3D6" stroke-width="1" opacity="0.4"/>
<line x1="600.0" y1="78" x2="620.0" y2="43.4" stroke="#EFE3D6" stroke-width="1" opacity="0.4"/>
<line x1="600.0" y1="78" x2="634.6" y2="58.0" stroke="#EFE3D6" stroke-width="1" opacity="0.4"/>
<circle cx="600.0" cy="78" r="40" fill="none" stroke="#EFE3D6" stroke-width="2"/>
<circle cx="600.0" cy="78" r="47" fill="none" stroke="#5C1420" stroke-width="1.5"/>
<circle cx="600.0" cy="78" r="8" fill="#EFE3D6"/>
<circle cx="600.0" cy="78" r="4" fill="#C7304A"/>
<line x1="340.0" y1="156" x2="860.0" y2="156" stroke="#5C1420" stroke-width="1.5"/>
<rect x="596.0" y="152" width="8" height="8" fill="#C7304A" transform="rotate(45 600.0 156)"/>
<text x="600.0" y="204" text-anchor="middle" font-family="Georgia, 'Times New Roman', serif" font-weight="700" font-size="56" letter-spacing="8" fill="#EFE3D6">MIGUEL FANHANI</text>
<path d="M 410.0 210 L 410.0 220.26519668926647 Q 410.0 226.26519668926647 407.5 226.26519668926647 Q 405.0 226.26519668926647 407.5 220.26519668926647 Z" fill="#C7304A" opacity="0.75"/>
<path d="M 560.0 210 L 560.0 224.30710284846145 Q 560.0 230.30710284846145 557.5 230.30710284846145 Q 555.0 230.30710284846145 557.5 224.30710284846145 Z" fill="#C7304A" opacity="0.75"/>
<path d="M 695.0 210 L 695.0 227.13128831971454 Q 695.0 233.13128831971454 692.5 233.13128831971454 Q 690.0 233.13128831971454 692.5 227.13128831971454 Z" fill="#C7304A" opacity="0.75"/>
<path d="M 830.0 210 L 830.0 220.96728921492078 Q 830.0 226.96728921492078 827.5 226.96728921492078 Q 825.0 226.96728921492078 827.5 220.96728921492078 Z" fill="#C7304A" opacity="0.75"/>
<text x="600.0" y="240" text-anchor="middle" font-family="Georgia, serif" font-weight="700" font-size="18" letter-spacing="6" fill="#9C1F2E">✦ DESENVOLVEDOR FULL STACK ✦</text>
<rect x="280.0" y="262" width="640" height="46" fill="#0A0508" stroke="#EFE3D6" stroke-width="1.5"/>
<text x="300.0" y="291" font-family="Georgia, serif" font-style="italic" font-size="16" fill="#9C8B84">"Bem-vindo ao meu covil. Aqui o código toma forma."</text>
</svg>
